<svg xmlns="http://www.w3.org/2000/svg" viewBox="0 0 740 300" width="740" height="300"
     preserveAspectRatio="xMidYMid meet" style="width: 100%;height: 100%;transform: translate3d(0px, 0px, 0px);">
    <defs>
        <clipPath id="__lottie_element_2">
            <rect width="740" height="300" x="0" y="0"></rect>
        </clipPath>
    </defs>
    <g clip-path="url(#__lottie_element_2)">
        <g transform="matrix(1,0,0,1,370,150)" opacity="1" style="display: block;">
            <g opacity="1" transform="matrix(1,0,0,1,0,0)">
                <path fill="rgb(22,20,83)" fill-opacity="1"
                      d=" M-332.9590148925781,80.03199768066406 C-332.9590148925781,80.03199768066406 -298.0570068359375,80.03199768066406 -298.0570068359375,80.03199768066406 C-298.0570068359375,80.03199768066406 -282.6440124511719,80.03199768066406 -282.6440124511719,80.03199768066406 C-282.6440124511719,80.03199768066406 -282.6440124511719,20.58099937438965 -282.6440124511719,20.58099937438965 C-282.6440124511719,20.58099937438965 -282.6440124511719,-9.88700008392334 -282.6440124511719,-9.88700008392334 C-282.6440124511719,-24.92799949645996 -270.4519958496094,-37.119998931884766 -255.41099548339844,-37.119998931884766 C-240.3699951171875,-37.119998931884766 -228.17799377441406,-24.92799949645996 -228.17799377441406,-9.88700008392334 C-228.17799377441406,-9.88700008392334 -228.17799377441406,80.03199768066406 -228.17799377441406,80.03199768066406 C-228.17799377441406,80.03199768066406 -177.40499877929688,80.03199768066406 -177.40499877929688,80.03199768066406 C-177.40499877929688,80.03199768066406 -177.40499877929688,-23.1560001373291 -177.40499877929688,-23.1560001373291 C-177.40499877929688,-56.472999572753906 -204.41400146484375,-83.48100280761719 -237.7310028076172,-83.48100280761719 C-237.7310028076172,-83.48100280761719 -237.7310028076172,-83.48100280761719 -237.7310028076172,-83.48100280761719 C-248.38299560546875,-83.48100280761719 -258.37799072265625,-80.7020034790039 -267.06201171875,-75.8550033569336 C-267.06201171875,-75.8550033569336 -282.6440124511719,-29.98900032043457 -282.6440124511719,-29.98900032043457 C-282.6440124511719,-29.98900032043457 -282.6440124511719,-63.417999267578125 -282.6440124511719,-63.417999267578125 C-282.6440124511719,-63.417999267578125 -282.6440124511719,-114.12899780273438 -282.6440124511719,-114.12899780273438 C-282.6440124511719,-114.12899780273438 -282.6440124511719,-138.43099975585938 -282.6440124511719,-138.43099975585938 C-282.6440124511719,-138.43099975585938 -332.9590148925781,-138.43099975585938 -332.9590148925781,-138.43099975585938 C-332.9590148925781,-138.43099975585938 -350,-88.27200317382812 -350,-88.27200317382812 C-350,-88.27200317382812 -332.9590148925781,-88.27200317382812 -332.9590148925781,-88.27200317382812 C-332.9590148925781,-88.27200317382812 -332.9590148925781,80.03199768066406 -332.9590148925781,80.03199768066406z"></path>
            </g>
        </g>
        <g transform="matrix(1,0,0,1,370,150)" opacity="1" style="display: block;">
            <g opacity="1" transform="matrix(1,0,0,1,0,0)">
                <path fill="rgb(22,20,83)" fill-opacity="1"
                      d=" M-39.15700149536133,-80.14900207519531 C-39.15700149536133,-80.14900207519531 -64.22899627685547,8.99899959564209 -64.22899627685547,8.99899959564209 C-64.22899627685547,8.99899959564209 -96.91100311279297,-80.14900207519531 -96.91100311279297,-80.14900207519531 C-96.91100311279297,-80.14900207519531 -144.11300659179688,-80.04399871826172 -144.11300659179688,-80.04399871826172 C-144.11300659179688,-80.04399871826172 -161.1540069580078,-29.884000778198242 -161.1540069580078,-29.884000778198242 C-161.1540069580078,-29.884000778198242 -133.25100708007812,-29.884000778198242 -133.25100708007812,-29.884000778198242 C-133.25100708007812,-29.884000778198242 -89.04100036621094,78.03500366210938 -89.04100036621094,78.03500366210938 C-89.04100036621094,78.03500366210938 -111.87300109863281,138.43099975585938 -111.87300109863281,138.43099975585938 C-111.87300109863281,138.43099975585938 -113.41699981689453,138.43099975585938 -113.41699981689453,138.43099975585938 C-113.41699981689453,138.43099975585938 -56.48500061035156,138.43099975585938 -56.48500061035156,138.43099975585938 C-56.48500061035156,138.43099975585938 17.774999618530273,-80.14900207519531 17.774999618530273,-80.14900207519531 C17.774999618530273,-80.14900207519531 -39.15700149536133,-80.14900207519531 -39.15700149536133,-80.14900207519531z"></path>
            </g>
        </g>
        <g transform="matrix(1,0,0,1,370,150)" opacity="1" style="display: block;">
            <g opacity="1" transform="matrix(1,0,0,1,0,0)">
                <path fill="rgb(22,20,83)" fill-opacity="1"
                      d=" M150.87899780273438,-83.48100280761719 C150.87899780273438,-83.48100280761719 145.88800048828125,-83.48100280761719 143.76800537109375,-83.48100280761719 C122.53700256347656,-83.48100280761719 103.49800109863281,-72.50399780273438 92.46900177001953,-55.92599868774414 C92.46900177001953,-55.92599868774414 92.46900177001953,-80.03500366210938 92.46900177001953,-80.03500366210938 C92.46900177001953,-80.03500366210938 42.154998779296875,-80.03500366210938 42.154998779296875,-80.03500366210938 C42.154998779296875,-80.03500366210938 25.113000869750977,-29.875999450683594 25.113000869750977,-29.875999450683594 C25.113000869750977,-29.875999450683594 42.154998779296875,-29.875999450683594 42.154998779296875,-29.875999450683594 C42.154998779296875,-29.875999450683594 42.154998779296875,80.04000091552734 42.154998779296875,80.04000091552734 C42.154998779296875,80.04000091552734 92.46900177001953,80.04000091552734 92.46900177001953,80.04000091552734 C92.46900177001953,80.04000091552734 92.46900177001953,20.59000015258789 92.46900177001953,20.59000015258789 C92.46900177001953,20.59000015258789 92.46900177001953,7.195000171661377 92.46900177001953,7.195000171661377 C92.46900177001953,-13.279000282287598 109.06600189208984,-29.875999450683594 129.5399932861328,-29.875999450683594 C129.5399932861328,-29.875999450683594 132.59100341796875,-29.875999450683594 132.59100341796875,-29.875999450683594 C138.4810028076172,-47.141998291015625 150.27499389648438,-81.70999908447266 150.27499389648438,-81.70999908447266 C150.27499389648438,-81.70999908447266 150.87899780273438,-83.48100280761719 150.87899780273438,-83.48100280761719z"></path>
            </g>
        </g>
        <g transform="matrix(1,0,0,1,370,150)" opacity="1" style="display: block;">
            <g opacity="1" transform="matrix(1,0,0,1,0,0)">
                <path fill="rgb(22,20,83)" fill-opacity="1"
                      d=" M259.6050109863281,-29.884000778198242 C259.6050109863281,-29.884000778198242 259.6050109863281,1.5980000495910645 259.6050109863281,1.5980000495910645 C259.6050109863281,1.6009999513626099 259.6050109863281,1.6050000190734863 259.6050109863281,1.6080000400543213 C259.6050109863281,19.000999450683594 245.50599670410156,33.099998474121094 228.11399841308594,33.099998474121094 C210.7209930419922,33.099998474121094 196.6219940185547,19.000999450683594 196.6219940185547,1.6080000400543213 C196.6219940185547,-15.784000396728516 210.7209930419922,-29.884000778198242 228.11300659179688,-29.884000778198242 C228.11300659179688,-29.884000778198242 259.6050109863281,-29.884000778198242 259.6050109863281,-29.884000778198242 C259.6050109863281,-29.884000778198242 259.6050109863281,-80.14900207519531 259.6050109863281,-80.14900207519531 C259.6050109863281,-80.14900207519531 228.11399841308594,-80.14900207519531 228.11399841308594,-80.14900207519531 C182.96099853515625,-80.14900207519531 146.35699462890625,-43.54499816894531 146.35699462890625,1.6080000400543213 C146.35699462890625,46.76100158691406 182.96099853515625,83.36399841308594 228.11399841308594,83.36399841308594 C273.2539978027344,83.36399841308594 309.8489990234375,46.78099822998047 309.8699951171875,1.6460000276565552 C309.8699951171875,1.6460000276565552 309.8699951171875,-29.884000778198242 309.8699951171875,-29.884000778198242 C309.8699951171875,-29.884000778198242 259.6050109863281,-29.884000778198242 259.6050109863281,-29.884000778198242z"></path>
            </g>
        </g>
        <g transform="matrix(1,0,0,1,370.0000305175781,150)" opacity="1" style="display: block;">
            <g opacity="1" transform="matrix(1,0,0,1,0,0)">
                <path fill="rgb(239,64,104)" fill-opacity="1"
                      d=" M325.1629943847656,-95.45800018310547 C325.1629943847656,-95.45800018310547 316.822998046875,-120.2959976196289 316.822998046875,-120.2959976196289 C316.822998046875,-120.2959976196289 309.7959899902344,-120.2959976196289 309.7959899902344,-120.2959976196289 C309.7959899902344,-120.2959976196289 301.4549865722656,-95.45800018310547 301.4549865722656,-95.45800018310547 C301.4549865722656,-95.45800018310547 276.6180114746094,-87.11699676513672 276.6180114746094,-87.11699676513672 C276.6180114746094,-87.11699676513672 276.6180114746094,-80.09100341796875 276.6180114746094,-80.09100341796875 C276.6180114746094,-80.09100341796875 301.4549865722656,-71.75 301.4549865722656,-71.75 C301.4549865722656,-71.75 309.7959899902344,-46.91400146484375 309.7959899902344,-46.91400146484375 C309.7959899902344,-46.91400146484375 316.8219909667969,-46.91400146484375 316.8219909667969,-46.91400146484375 C316.8219909667969,-46.91400146484375 325.1629943847656,-71.75 325.1629943847656,-71.75 C325.1629943847656,-71.75 350,-80.09100341796875 350,-80.09100341796875 C350,-80.09100341796875 350,-87.11699676513672 350,-87.11699676513672 C350,-87.11699676513672 325.1629943847656,-95.45800018310547 325.1629943847656,-95.45800018310547z"></path>
            </g>
        </g>
    </g>
</svg>
